<?xml version="1.0" encoding="utf-8"?>
<!-- Generator: Adobe Illustrator 18.0.0, SVG Export Plug-In . SVG Version: 6.00 Build 0)  -->
<!DOCTYPE svg PUBLIC "-//W3C//DTD SVG 1.1//EN" "http://www.w3.org/Graphics/SVG/1.1/DTD/svg11.dtd">
<svg version="1.1" xmlns="http://www.w3.org/2000/svg" xmlns:xlink="http://www.w3.org/1999/xlink" x="0px" y="0px"
	 viewBox="0 0 1000 1000" style="enable-background:new 0 0 1000 1000;" xml:space="preserve">
<g id="Livello_2">
	<path style="opacity:0.3;fill:none;stroke:#1770C9;stroke-width:100;stroke-miterlimit:10;" d="M908.2,164.2
		c-22.6-24-78.5-17.5-153.1,13C662.6,215,541.2,289.6,418.9,388.4C341.2,451.1,272.8,515.5,218,575.6
		c-36.2,39.7-66.5,77.6-89.5,111.9c-47.4,70.5-64.4,126-40.2,151.7"/>
	<path style="opacity:0.3;fill:none;stroke:#1770C9;stroke-width:100;stroke-miterlimit:10;" d="M902.5,851.9
		c-22.6,24-78.5,17.5-153.1-13c-92.5-37.8-213.9-112.5-336.3-211.3C335.5,564.9,267,500.5,212.3,440.4
		c-36.2-39.7-66.5-77.6-89.5-111.9c-47.4-70.5-64.4-126-40.2-151.7"/>
</g>
<g id="Livello_1">
	<circle style="fill:#131AA3;" cx="487.5" cy="496.8" r="413.8"/>
	<path style="fill:#0A0A70;" d="M422.5,810.9c222.5,0,402.9-179.8,402.9-401.5c0-64.8-15.4-125.9-42.7-180.1
		c67.9,71.9,109.5,168.6,109.5,275.1c0,221.7-180.4,401.5-402.9,401.5c-157.5,0-293.9-90.1-360.1-221.4
		C202.6,762.3,306.8,810.9,422.5,810.9z"/>
	<path style="fill:none;stroke:#1D1D1E;stroke-width:30;stroke-miterlimit:10;" d="M192.1,938.1"/>
	<polygon style="fill:#06063F;" points="235.4,379.1 488.1,204.8 488.1,356.4 407.2,414.5 417.3,566.9 321.3,644.4 299.9,474.4 
		209,525.7 209,401.9 	"/>
	<polygon style="fill:#D8D8D8;stroke:#070707;stroke-width:8;stroke-miterlimit:10;" points="250.6,408.2 503.2,233.8 503.2,385.4 
		422.4,443.5 432.5,596 336.5,673.5 315,503.4 224.2,554.7 224.2,430.9 	"/>
	<path style="fill:#06063F;" d="M450.7,463.8l83.2-46.4l24.4,161l32.3-97.6l47.6,66.1l3.6-150.7c0,0,88.2-27.9,87.3-20.2
		c-0.9,7.8-34.6,285.8-34.6,285.8l-77.8-34.4l-65.3,110.2L450.7,463.8z"/>
	<path style="fill:#FFFFFF;stroke:#070707;stroke-width:8;stroke-miterlimit:10;" d="M472.9,474.9l83.2-46.4l24.4,161l32.3-97.6
		l47.6,66.1l3.6-150.7c0,0,88.2-27.9,87.3-20.2c-0.9,7.8-34.6,285.8-34.6,285.8L639,638.5l-65.3,110.2L472.9,474.9z"/>
	<path style="opacity:0.3;fill:none;stroke:#1770C9;stroke-width:100;stroke-miterlimit:10;" d="M99.1,851.9
		c10,10.6,26.5,15.3,48.2,14.5c88.5-3.1,263.7-95.6,441.1-238.8c195.8-158,332.6-326.7,341.1-411.3c1.7-16.7-1.6-30.2-10.5-39.6"/>
	<path style="opacity:0.3;fill:none;stroke:#1770C9;stroke-width:100;stroke-miterlimit:10;" d="M93.4,164.2
		c10-10.6,26.5-15.3,48.2-14.5c88.5,3.1,263.7,95.6,441.1,238.8c195.8,158,332.6,326.7,341.1,411.3c1.7,16.7-1.6,30.2-10.5,39.6"/>
</g>
</svg>
